<svg id="Layer_1" data-name="Layer 1" xmlns="http://www.w3.org/2000/svg" viewBox="0 0 213.35 213.35"><defs><style>.cls-1{fill:#2b3990;}.cls-2{fill:#00a79d;stroke:#fff;stroke-miterlimit:10;}</style></defs><circle class="cls-1" cx="106.68" cy="106.68" r="106.68"/><path class="cls-2" d="M60.8,136.7l-3.16-14.61H44.16L41,136.7H28.51L43.2,76H58.27L73.21,136.7ZM55.86,112,52.58,95.9c-.22-1.32-.43-2.62-.64-3.9s-.4-2.49-.58-3.67S51,86.05,50.88,85c-.08,1-.21,2-.37,3.2s-.36,2.38-.58,3.65-.48,2.56-.75,3.86L45.94,112Z" transform="translate(-8.18 -3.98)"/><path class="cls-2" d="M78.65,136.7V76H90.31v50.56h16.14V136.7Z" transform="translate(-8.18 -3.98)"/><path class="cls-2" d="M133.18,102.55h19v31.62a46.62,46.62,0,0,1-8.86,2.53,50.73,50.73,0,0,1-9.24.83,20.12,20.12,0,0,1-12.55-3.84,23.15,23.15,0,0,1-7.6-10.85,48.71,48.71,0,0,1-2.55-16.64,42.67,42.67,0,0,1,2.89-16.46,22.36,22.36,0,0,1,22-14.59A30.84,30.84,0,0,1,151.32,79l-3.4,9.63a22.55,22.55,0,0,0-5.42-2.53,19.55,19.55,0,0,0-5.83-.87,11,11,0,0,0-7.31,2.47,15,15,0,0,0-4.44,7.22,39.45,39.45,0,0,0-1.49,11.64,44.61,44.61,0,0,0,1.22,11.06,16,16,0,0,0,3.74,7.29,8.58,8.58,0,0,0,6.41,2.57,19.94,19.94,0,0,0,3.13-.25,17.47,17.47,0,0,0,2.85-.71V112.38h-7.6Z" transform="translate(-8.18 -3.98)"/><path class="cls-2" d="M188.8,136.7l-3.16-14.61H172.15L169,136.7H156.51L171.2,76h15.07l14.94,60.68ZM183.86,112,180.58,95.9c-.22-1.32-.44-2.62-.64-3.9s-.4-2.49-.58-3.67-.34-2.28-.48-3.3c-.09,1-.21,2-.38,3.2s-.36,2.38-.58,3.65-.47,2.56-.74,3.86L173.94,112Z" transform="translate(-8.18 -3.98)"/></svg>